<?plantuml 1.2026.1?><svg xmlns="http://www.w3.org/2000/svg" xmlns:xlink="http://www.w3.org/1999/xlink" contentStyleType="text/css" data-diagram-type="CLASS" height="190px" preserveAspectRatio="none" style="width:315px;height:190px;background:#FFFFFF;" version="1.1" viewBox="0 0 315 190" width="315px" zoomAndPan="magnify"><defs/><g><!--class dev.hardwood.reader.FilterPredicate.IsNotNullPredicate--><g class="entity" data-qualified-name="dev.hardwood.reader.FilterPredicate.IsNotNullPredicate" data-source-line="13" id="ent0002"><a href="FilterPredicate.IsNotNullPredicate.html" target="_top" title="FilterPredicate.IsNotNullPredicate.html" xlink:actuate="onRequest" xlink:href="FilterPredicate.IsNotNullPredicate.html" xlink:show="new" xlink:title="FilterPredicate.IsNotNullPredicate.html" xlink:type="simple"><rect fill="#F1F1F1" height="78.5313" rx="2.5" ry="2.5" style="stroke:#181818;stroke-width:0.5;" width="267.1494" x="41" y="86"/><ellipse cx="56" cy="104.9688" fill="#ADD1B2" rx="11" ry="11" style="stroke:#181818;stroke-width:1;"/><path d="M58.9688,110.6094 Q58.3906,110.9063 57.75,111.0469 Q57.1094,111.2031 56.4063,111.2031 Q53.9063,111.2031 52.5781,109.5625 Q51.2656,107.9063 51.2656,104.7813 Q51.2656,101.6563 52.5781,100 Q53.9063,98.3438 56.4063,98.3438 Q57.1094,98.3438 57.75,98.5 Q58.4063,98.6563 58.9688,98.9531 L58.9688,101.6719 Q58.3438,101.0938 57.75,100.8281 Q57.1563,100.5469 56.5313,100.5469 Q55.1875,100.5469 54.5,101.625 Q53.8125,102.6875 53.8125,104.7813 Q53.8125,106.875 54.5,107.9531 Q55.1875,109.0156 56.5313,109.0156 Q57.1563,109.0156 57.75,108.75 Q58.3438,108.4688 58.9688,107.8906 L58.9688,110.6094 Z " fill="#000000"/><text fill="#000000" font-family="sans-serif" font-size="14" lengthAdjust="spacing" textLength="235.1494" x="70" y="103.9951">FilterPredicate.IsNotNullPredicate</text><text fill="#000000" font-family="sans-serif" font-size="10" lengthAdjust="spacing" textLength="107.4658" x="133.8418" y="116.5791">dev.hardwood.reader</text><line style="stroke:#181818;stroke-width:0.5;" x1="42" x2="307.1494" y1="123.9375" y2="123.9375"/></a><g data-visibility-modifier="PUBLIC_METHOD"><a href="FilterPredicate.IsNotNullPredicate.html" target="_top" title="FilterPredicate.IsNotNullPredicate.html" xlink:actuate="onRequest" xlink:href="FilterPredicate.IsNotNullPredicate.html" xlink:show="new" xlink:title="FilterPredicate.IsNotNullPredicate.html" xlink:type="simple"><ellipse cx="52" cy="137.5859" fill="#84BE84" rx="3" ry="3" style="stroke:#038048;stroke-width:1;"/></a></g><a href="FilterPredicate.IsNotNullPredicate.html" target="_top" title="FilterPredicate.IsNotNullPredicate.html" xlink:actuate="onRequest" xlink:href="FilterPredicate.IsNotNullPredicate.html" xlink:show="new" xlink:title="FilterPredicate.IsNotNullPredicate.html" xlink:type="simple"><text fill="#000000" font-family="sans-serif" font-size="14" lengthAdjust="spacing" textLength="181.7471" x="61" y="140.9326">IsNotNullPredicate(String)</text></a><g data-visibility-modifier="PUBLIC_METHOD"><a href="FilterPredicate.IsNotNullPredicate.html" target="_top" title="FilterPredicate.IsNotNullPredicate.html" xlink:actuate="onRequest" xlink:href="FilterPredicate.IsNotNullPredicate.html" xlink:show="new" xlink:title="FilterPredicate.IsNotNullPredicate.html" xlink:type="simple"><ellipse cx="52" cy="153.8828" fill="#84BE84" rx="3" ry="3" style="stroke:#038048;stroke-width:1;"/></a></g><a href="FilterPredicate.IsNotNullPredicate.html" target="_top" title="FilterPredicate.IsNotNullPredicate.html" xlink:actuate="onRequest" xlink:href="FilterPredicate.IsNotNullPredicate.html" xlink:show="new" xlink:title="FilterPredicate.IsNotNullPredicate.html" xlink:type="simple"><text fill="#000000" font-family="sans-serif" font-size="14" lengthAdjust="spacing" textLength="113.4082" x="61" y="157.2295">column(): String</text></a></g><!--class java.lang.Record--><g class="entity" data-qualified-name="java.lang.Record" data-source-line="18" id="ent0003"><rect fill="#F1F1F1" height="37.9375" rx="2.5" ry="2.5" style="stroke:#181818;stroke-width:0.5;" width="81.2461" x="6" y="12"/><ellipse cx="21" cy="30.9688" fill="#A9DCDF" rx="11" ry="11" style="stroke:#181818;stroke-width:1;"/><path d="M21.1094,26.3125 L19.9531,31.3906 L22.2813,31.3906 L21.1094,26.3125 Z M19.625,24.0781 L22.6094,24.0781 L25.9688,36.4688 L23.5156,36.4688 L22.75,33.4063 L19.4688,33.4063 L18.7188,36.4688 L16.2813,36.4688 L19.625,24.0781 Z " fill="#000000"/><text fill="#000000" font-family="sans-serif" font-size="14" font-style="italic" lengthAdjust="spacing" textLength="49.2461" x="35" y="29.9951">Record</text><text fill="#000000" font-family="sans-serif" font-size="10" font-style="italic" lengthAdjust="spacing" textLength="45.7227" x="36.7617" y="42.5791">java.lang</text></g><!--class dev.hardwood.reader.FilterPredicate--><g class="entity" data-qualified-name="dev.hardwood.reader.FilterPredicate" data-source-line="19" id="ent0004"><a href="FilterPredicate.html" target="_top" title="FilterPredicate.html" xlink:actuate="onRequest" xlink:href="FilterPredicate.html" xlink:show="new" xlink:title="FilterPredicate.html" xlink:type="simple"><rect fill="#F1F1F1" height="37.9375" rx="2.5" ry="2.5" style="stroke:#181818;stroke-width:0.5;" width="139.4658" x="105" y="12"/><ellipse cx="120" cy="30.9688" fill="#B4A7E5" rx="11" ry="11" style="stroke:#181818;stroke-width:1;"/><path d="M115.9219,26.7344 L115.9219,24.5781 L123.3125,24.5781 L123.3125,26.7344 L120.8438,26.7344 L120.8438,34.8125 L123.3125,34.8125 L123.3125,36.9688 L115.9219,36.9688 L115.9219,34.8125 L118.3906,34.8125 L118.3906,26.7344 L115.9219,26.7344 Z " fill="#000000"/><text fill="#000000" font-family="sans-serif" font-size="14" font-style="italic" lengthAdjust="spacing" textLength="101.6572" x="136.9043" y="29.9951">FilterPredicate</text><text fill="#000000" font-family="sans-serif" font-size="10" font-style="italic" lengthAdjust="spacing" textLength="107.4658" x="134" y="42.5791">dev.hardwood.reader</text></a></g><g class="link" data-entity-1="ent0003" data-entity-2="ent0002" data-link-type="extension" id="lnk5"><polygon fill="none" points="71.4835,50.0545,82.5584,65.4606,89.5871,55.7344,71.4835,50.0545" style="stroke:#181818;stroke-width:1;"/><path d="M86.0728,60.5975 C100.1872,70.7974 103.8063,73.4128 120.9798,85.8233" fill="none" style="stroke:#181818;stroke-width:1;"/></g><g class="link" data-entity-1="ent0004" data-entity-2="ent0002" data-link-type="extension" id="lnk6"><polygon fill="none" points="168.9963,50.275,161.1913,67.569,173.1287,68.7932,168.9963,50.275" style="stroke:#181818;stroke-width:1;"/><path d="M167.16,68.1811 C166.1126,78.3954 167.5616,73.6196 167.8347,85.9896" fill="none" style="stroke:#181818;stroke-width:1;stroke-dasharray:7,7;"/></g><g class="link" data-entity-1="ent0004" data-entity-2="ent0002" data-link-type="nested" id="lnk7"><ellipse cx="180.8198" cy="58.2333" fill="#FFFFFF" rx="8" ry="8" style="stroke:#181818;stroke-width:1;"/><line style="stroke:#181818;stroke-width:1;" x1="181.636" x2="180.0037" y1="66.1916" y2="50.275"/><line style="stroke:#181818;stroke-width:1;" x1="172.8616" x2="188.7781" y1="59.0494" y2="57.4172"/><path d="M181.636,66.1916 C182.6834,76.4059 181.4384,73.6196 181.1653,85.9896" fill="none" style="stroke:#181818;stroke-width:1;"/></g><g class="footer" data-source-line="32"><text fill="#888888" font-family="sans-serif" font-size="10" lengthAdjust="spacing" textLength="3.1787" x="151.9106" y="168.2822">&#160;</text><a href="https://github.com/talsma-ict/umldoclet" target="_top" title="https://github.com/talsma-ict/umldoclet" xlink:actuate="onRequest" xlink:href="https://github.com/talsma-ict/umldoclet" xlink:show="new" xlink:title="https://github.com/talsma-ict/umldoclet" xlink:type="simple"><text fill="#888888" font-family="sans-serif" font-size="10" lengthAdjust="spacing" textLength="82.3096" x="112.3452" y="179.9229">UMLDoclet 2.2.5</text></a></g><?plantuml-src pLHTJnin47pdLspf0q4Gvn8Wb2X2GkaNLOeGX9S67XnxS-VYimzx3vGM_djzlZIaG4M5MgcdID7jhcTdntCB0B060rlCd4ep0h90cV9mzda8t4X8qQ3ZX19KpbFqC45jJUhhGWHUKcOTs6by4zOvz8KrKfaKFl5h3jwMJg1dAoiGMur-ejzmluG-cLN1jrPe96WCrfSeTP9sjzb9EbqOSUrp3eU34PkZtP_fi0xRWO2jbK3Z0sHf9Bf8ww3W8lmDwymcNAFpoffm9fdZLACAQuWhuw7WZdmrqh7cXYgkRLRrPsre79mEV-MMx4Lkct3W32ybdDYhSZ7kgyBnD33MV6PB0fyZSSFhd0-a3S-3N5pWAOQcd8AInXgC-Kn91CmBci5KePR-OJI0PJQ4OrnexZsizhtwXhtszlvxfGdTiKEfH12O7VeZIqUbrelGkPaN9_iIhrd6dRonLZA7FEYs2k5wdeYpvu5XF7w-Y6MKwuiB-1xPLy_6uwB6ARbWfFNx6c5rcPl6UW_gLCpSrHBmYIV71JtIuWI3B-NIl5-3CLcuspHEkNXZTM44KoOCC0qtytjD_uw0JwXLI_E_q8Wy7ce4_TjcyuN-Y81_Ggb_ozY_xh7nyZ5YZxwdcSRzXKEdrePpIxQkde-p0jrGcSk1rU4JV_tcwUnPjR2qCXXsfBWq64oSB2hlwdQjfNxpNkTcFCw82jzhjL95MJbXmkOjYikogGIrobpBUai-s9Tpbwt1XyKYhfPPCmc_dL6oszjkztPssUxstjPUqkrkVHc_8z4w6mqkVW00?></g></svg>