<?plantuml 1.2026.1?><svg xmlns="http://www.w3.org/2000/svg" xmlns:xlink="http://www.w3.org/1999/xlink" contentStyleType="text/css" data-diagram-type="CLASS" height="153px" preserveAspectRatio="none" style="width:357px;height:153px;background:#FFFFFF;" version="1.1" viewBox="0 0 357 153" width="357px" zoomAndPan="magnify"><defs/><g><!--cluster dev.hardwood.aws.auth--><g class="cluster" data-qualified-name="dev.hardwood.aws.auth" data-source-line="10" id="ent0002"><path d="M16.5,4 L207.416,4 A3.75,3.75 0 0 1 209.916,6.5 L216.916,26.2969 L347.5,26.2969 A2.5,2.5 0 0 1 350,28.7969 L350,117.5 A2.5,2.5 0 0 1 347.5,120 L16.5,120 A2.5,2.5 0 0 1 14,117.5 L14,6.5 A2.5,2.5 0 0 1 16.5,4" fill="none" style="stroke:#000000;stroke-width:1.5;"/><line style="stroke:#000000;stroke-width:1.5;" x1="14" x2="216.916" y1="26.2969" y2="26.2969"/><text fill="#000000" font-family="sans-serif" font-size="14" font-weight="bold" lengthAdjust="spacing" textLength="189.916" x="18" y="18.9951">dev.hardwood.aws.auth</text></g><!--class SdkCredentialsProviders--><g class="entity" data-qualified-name="dev.hardwood.aws.auth..SdkCredentialsProviders" data-source-line="12" id="ent0003"><a href="SdkCredentialsProviders.html" target="_top" title="SdkCredentialsProviders.html" xlink:actuate="onRequest" xlink:href="SdkCredentialsProviders.html" xlink:show="new" xlink:title="SdkCredentialsProviders.html" xlink:type="simple"><rect fill="#F1F1F1" height="80.5938" rx="2.5" ry="2.5" style="stroke:#181818;stroke-width:0.5;" width="320.4922" x="22" y="31"/><ellipse cx="92.4819" cy="47" fill="#ADD1B2" rx="11" ry="11" style="stroke:#181818;stroke-width:1;"/><path d="M95.4507,52.6406 Q94.8726,52.9375 94.2319,53.0781 Q93.5913,53.2344 92.8882,53.2344 Q90.3882,53.2344 89.0601,51.5938 Q87.7476,49.9375 87.7476,46.8125 Q87.7476,43.6875 89.0601,42.0313 Q90.3882,40.375 92.8882,40.375 Q93.5913,40.375 94.2319,40.5313 Q94.8882,40.6875 95.4507,40.9844 L95.4507,43.7031 Q94.8257,43.125 94.2319,42.8594 Q93.6382,42.5781 93.0132,42.5781 Q91.6694,42.5781 90.9819,43.6563 Q90.2944,44.7188 90.2944,46.8125 Q90.2944,48.9063 90.9819,49.9844 Q91.6694,51.0469 93.0132,51.0469 Q93.6382,51.0469 94.2319,50.7813 Q94.8257,50.5 95.4507,49.9219 L95.4507,52.6406 Z " fill="#000000"/><text fill="#000000" font-family="sans-serif" font-size="14" lengthAdjust="spacing" textLength="171.0283" x="112.9819" y="51.8467">SdkCredentialsProviders</text><line style="stroke:#181818;stroke-width:0.5;" x1="23" x2="341.4922" y1="63" y2="63"/><line style="stroke:#181818;stroke-width:0.5;" x1="23" x2="341.4922" y1="71" y2="71"/></a><g data-visibility-modifier="PUBLIC_METHOD"><a href="SdkCredentialsProviders.html" target="_top" title="SdkCredentialsProviders.html" xlink:actuate="onRequest" xlink:href="SdkCredentialsProviders.html" xlink:show="new" xlink:title="SdkCredentialsProviders.html" xlink:type="simple"><ellipse cx="33" cy="84.6484" fill="#84BE84" rx="3" ry="3" style="stroke:#038048;stroke-width:1;"/></a></g><a href="SdkCredentialsProviders.html" target="_top" title="SdkCredentialsProviders.html" xlink:actuate="onRequest" xlink:href="SdkCredentialsProviders.html" xlink:show="new" xlink:title="SdkCredentialsProviders.html" xlink:type="simple"><text fill="#000000" font-family="sans-serif" font-size="14" lengthAdjust="spacing" text-decoration="underline" textLength="264.9883" x="42" y="87.9951">defaultChain(): S3CredentialsProvider</text></a><g data-visibility-modifier="PUBLIC_METHOD"><a href="SdkCredentialsProviders.html" target="_top" title="SdkCredentialsProviders.html" xlink:actuate="onRequest" xlink:href="SdkCredentialsProviders.html" xlink:show="new" xlink:title="SdkCredentialsProviders.html" xlink:type="simple"><ellipse cx="33" cy="100.9453" fill="#84BE84" rx="3" ry="3" style="stroke:#038048;stroke-width:1;"/></a></g><a href="SdkCredentialsProviders.html" target="_top" title="SdkCredentialsProviders.html" xlink:actuate="onRequest" xlink:href="SdkCredentialsProviders.html" xlink:show="new" xlink:title="SdkCredentialsProviders.html" xlink:type="simple"><text fill="#000000" font-family="sans-serif" font-size="14" lengthAdjust="spacing" text-decoration="underline" textLength="294.4922" x="42" y="104.292">fromProfile(String): S3CredentialsProvider</text></a></g><g class="footer" data-source-line="25"><text fill="#888888" font-family="sans-serif" font-size="10" lengthAdjust="spacing" textLength="3.1787" x="168.9106" y="131.2822">&#160;</text><a href="https://github.com/talsma-ict/umldoclet" target="_top" title="https://github.com/talsma-ict/umldoclet" xlink:actuate="onRequest" xlink:href="https://github.com/talsma-ict/umldoclet" xlink:show="new" xlink:title="https://github.com/talsma-ict/umldoclet" xlink:type="simple"><text fill="#888888" font-family="sans-serif" font-size="10" lengthAdjust="spacing" textLength="82.3096" x="129.3452" y="142.9229">UMLDoclet 2.2.5</text></a></g><?plantuml-src XL9TZzCm47o_Nx681thYwdoK7ZH2I5L0SAX89zfxeVHXQxk9LSSEzgPLTRh_ZfEKqaDtmYzMihipi-C107W5kQqFJXKb0LcWKdcu-pO3D08AQQH3aW9KXONqi9RQciBtZHAmeT8wi9lkYrldfA-j4SeKy1Lt2DusZalFBYwWerhyGT-ZFqDV7zgV7otNac2GNvv9IkFaUfZ6wJKiKFiAuIPVi2FQtvcKfMmC0LihBeqFa8qHqdMofZNoSCtwoXNifFFAcZ0J7t7QLRarXCfugD6HRrUwrMYerPgmbfybC9ZEPu-rnPDEsnLCdS56m7Vxgpcj-w9sM0J56W-s8V2L93JObNpGx6MWGWh-PLa_48HkWyqWv8wLwCJUMi5mxrdhCzptJUtX6hs7kTZcJWffI0LhRftTgR2pX-NocGehgTAhLK22itFl2Kdn1tWjv0ORJNaPZ1XSPZ0VFO7opEp6sIgqR9IMWpcva83_0Zpq2nslzvuEMduuLJVMKdZ1nrg_76hfPifiSwk3SI_VFLszQnzVAoD3tlZMo61MV4RRqKLdV4UkdsQvB8bgdqLHeQXirepRAg8kU4F5AMegBVh4_PEzrUgOfS-dKBV16CRZuIXU976MZh9HmYRZjsaIJqPlVYm_4O_k5ldgDm00?></g></svg>