<svg xmlns="http://www.w3.org/2000/svg" xmlns:xlink="http://www.w3.org/1999/xlink" contentStyleType="text/css" data-diagram-type="CLASS" height="506px" preserveAspectRatio="none" style="width:1211px;height:506px;background:#FFFFFF;" version="1.1" viewBox="0 0 1211 506" width="1211px" zoomAndPan="magnify"><defs/><g><!--cluster dev.hardwood.writer--><g class="cluster" data-qualified-name="dev.hardwood.writer" data-source-line="10" id="ent0002"><path d="M16.5,111 L183.0391,111 A3.75,3.75 0 0 1 185.5391,113.5 L192.5391,133.2969 L1201.5,133.2969 A2.5,2.5 0 0 1 1204,135.7969 L1204,470.5 A2.5,2.5 0 0 1 1201.5,473 L16.5,473 A2.5,2.5 0 0 1 14,470.5 L14,113.5 A2.5,2.5 0 0 1 16.5,111" fill="none" style="stroke:#000000;stroke-width:1.5;"/><line style="stroke:#000000;stroke-width:1.5;" x1="14" x2="192.5391" y1="133.2969" y2="133.2969"/><text fill="#000000" font-family="sans-serif" font-size="14" font-weight="bold" lengthAdjust="spacing" textLength="165.5391" x="18" y="125.9951">dev.hardwood.writer</text></g><!--cluster java.io--><g class="cluster" data-qualified-name="java.io" data-source-line="48" id="ent0007"><path d="M197.5,4 L251.0547,4 A3.75,3.75 0 0 1 253.5547,6.5 L260.5547,26.2969 L320.5,26.2969 A2.5,2.5 0 0 1 323,28.7969 L323,100.5 A2.5,2.5 0 0 1 320.5,103 L197.5,103 A2.5,2.5 0 0 1 195,100.5 L195,6.5 A2.5,2.5 0 0 1 197.5,4" fill="none" style="stroke:#000000;stroke-width:1.5;"/><line style="stroke:#000000;stroke-width:1.5;" x1="195" x2="260.5547" y1="26.2969" y2="26.2969"/><text fill="#000000" font-family="sans-serif" font-size="14" font-weight="bold" lengthAdjust="spacing" textLength="52.5547" x="199" y="18.9951">java.io</text></g><!--class WriterConfig--><g class="entity" data-qualified-name="dev.hardwood.writer..WriterConfig" data-source-line="12" id="ent0003"><a href="WriterConfig.html" target="_top" title="WriterConfig.html" xlink:actuate="onRequest" xlink:href="WriterConfig.html" xlink:show="new" xlink:title="WriterConfig.html" xlink:type="simple"><rect fill="#F1F1F1" height="178.375" rx="2.5" ry="2.5" style="stroke:#181818;stroke-width:0.5;" width="342.6543" x="852.5" y="138"/><ellipse cx="975.4443" cy="154" fill="#ADD1B2" rx="11" ry="11" style="stroke:#181818;stroke-width:1;"/><path d="M978.4131,159.6406 Q977.835,159.9375 977.1943,160.0781 Q976.5537,160.2344 975.8506,160.2344 Q973.3506,160.2344 972.0225,158.5938 Q970.71,156.9375 970.71,153.8125 Q970.71,150.6875 972.0225,149.0313 Q973.3506,147.375 975.8506,147.375 Q976.5537,147.375 977.1943,147.5313 Q977.8506,147.6875 978.4131,147.9844 L978.4131,150.7031 Q977.7881,150.125 977.1943,149.8594 Q976.6006,149.5781 975.9756,149.5781 Q974.6318,149.5781 973.9443,150.6563 Q973.2568,151.7188 973.2568,153.8125 Q973.2568,155.9063 973.9443,156.9844 Q974.6318,158.0469 975.9756,158.0469 Q976.6006,158.0469 977.1943,157.7813 Q977.7881,157.5 978.4131,156.9219 L978.4131,159.6406 Z " fill="#000000"/><text fill="#000000" font-family="sans-serif" font-size="14" lengthAdjust="spacing" textLength="88.2656" x="995.9443" y="158.8467">WriterConfig</text><line style="stroke:#181818;stroke-width:0.5;" x1="853.5" x2="1194.1543" y1="170" y2="170"/></a><g data-visibility-modifier="PUBLIC_FIELD"><a href="WriterConfig.html" target="_top" title="WriterConfig.html" xlink:actuate="onRequest" xlink:href="WriterConfig.html" xlink:show="new" xlink:title="WriterConfig.html" xlink:type="simple"><ellipse cx="863.5" cy="183.6484" fill="none" rx="3" ry="3" style="stroke:#038048;stroke-width:1;"/></a></g><a href="WriterConfig.html" target="_top" title="WriterConfig.html" xlink:actuate="onRequest" xlink:href="WriterConfig.html" xlink:show="new" xlink:title="WriterConfig.html" xlink:type="simple"><text fill="#000000" font-family="sans-serif" font-size="14" lengthAdjust="spacing" text-decoration="underline" textLength="250.5303" x="872.5" y="186.9951">DEFAULT_PAGE_TARGET_BYTES: int</text></a><g data-visibility-modifier="PUBLIC_FIELD"><a href="WriterConfig.html" target="_top" title="WriterConfig.html" xlink:actuate="onRequest" xlink:href="WriterConfig.html" xlink:show="new" xlink:title="WriterConfig.html" xlink:type="simple"><ellipse cx="863.5" cy="199.9453" fill="none" rx="3" ry="3" style="stroke:#038048;stroke-width:1;"/></a></g><a href="WriterConfig.html" target="_top" title="WriterConfig.html" xlink:actuate="onRequest" xlink:href="WriterConfig.html" xlink:show="new" xlink:title="WriterConfig.html" xlink:type="simple"><text fill="#000000" font-family="sans-serif" font-size="14" lengthAdjust="spacing" text-decoration="underline" textLength="316.6543" x="872.5" y="203.292">DEFAULT_ROW_GROUP_TARGET_BYTES: long</text></a><g data-visibility-modifier="PUBLIC_FIELD"><a href="WriterConfig.html" target="_top" title="WriterConfig.html" xlink:actuate="onRequest" xlink:href="WriterConfig.html" xlink:show="new" xlink:title="WriterConfig.html" xlink:type="simple"><ellipse cx="863.5" cy="216.2422" fill="none" rx="3" ry="3" style="stroke:#038048;stroke-width:1;"/></a></g><a href="WriterConfig.html" target="_top" title="WriterConfig.html" xlink:actuate="onRequest" xlink:href="WriterConfig.html" xlink:show="new" xlink:title="WriterConfig.html" xlink:type="simple"><text fill="#000000" font-family="sans-serif" font-size="14" lengthAdjust="spacing" text-decoration="underline" textLength="213.0625" x="872.5" y="219.5889">DEFAULT_CREATED_BY: String</text><line style="stroke:#181818;stroke-width:0.5;" x1="853.5" x2="1194.1543" y1="226.8906" y2="226.8906"/></a><g data-visibility-modifier="PUBLIC_METHOD"><a href="WriterConfig.html" target="_top" title="WriterConfig.html" xlink:actuate="onRequest" xlink:href="WriterConfig.html" xlink:show="new" xlink:title="WriterConfig.html" xlink:type="simple"><ellipse cx="863.5" cy="240.5391" fill="#84BE84" rx="3" ry="3" style="stroke:#038048;stroke-width:1;"/></a></g><a href="WriterConfig.html" target="_top" title="WriterConfig.html" xlink:actuate="onRequest" xlink:href="WriterConfig.html" xlink:show="new" xlink:title="WriterConfig.html" xlink:type="simple"><text fill="#000000" font-family="sans-serif" font-size="14" lengthAdjust="spacing" text-decoration="underline" textLength="164.9102" x="872.5" y="243.8857">defaults(): WriterConfig</text></a><g data-visibility-modifier="PUBLIC_METHOD"><a href="WriterConfig.html" target="_top" title="WriterConfig.html" xlink:actuate="onRequest" xlink:href="WriterConfig.html" xlink:show="new" xlink:title="WriterConfig.html" xlink:type="simple"><ellipse cx="863.5" cy="256.8359" fill="#84BE84" rx="3" ry="3" style="stroke:#038048;stroke-width:1;"/></a></g><a href="WriterConfig.html" target="_top" title="WriterConfig.html" xlink:actuate="onRequest" xlink:href="WriterConfig.html" xlink:show="new" xlink:title="WriterConfig.html" xlink:type="simple"><text fill="#000000" font-family="sans-serif" font-size="14" lengthAdjust="spacing" text-decoration="underline" textLength="118.3984" x="872.5" y="260.1826">builder(): Builder</text></a><g data-visibility-modifier="PUBLIC_METHOD"><a href="WriterConfig.html" target="_top" title="WriterConfig.html" xlink:actuate="onRequest" xlink:href="WriterConfig.html" xlink:show="new" xlink:title="WriterConfig.html" xlink:type="simple"><ellipse cx="863.5" cy="273.1328" fill="#84BE84" rx="3" ry="3" style="stroke:#038048;stroke-width:1;"/></a></g><a href="WriterConfig.html" target="_top" title="WriterConfig.html" xlink:actuate="onRequest" xlink:href="WriterConfig.html" xlink:show="new" xlink:title="WriterConfig.html" xlink:type="simple"><text fill="#000000" font-family="sans-serif" font-size="14" lengthAdjust="spacing" textLength="158.4707" x="872.5" y="276.4795">pageTargetBytes(): int</text></a><g data-visibility-modifier="PUBLIC_METHOD"><a href="WriterConfig.html" target="_top" title="WriterConfig.html" xlink:actuate="onRequest" xlink:href="WriterConfig.html" xlink:show="new" xlink:title="WriterConfig.html" xlink:type="simple"><ellipse cx="863.5" cy="289.4297" fill="#84BE84" rx="3" ry="3" style="stroke:#038048;stroke-width:1;"/></a></g><a href="WriterConfig.html" target="_top" title="WriterConfig.html" xlink:actuate="onRequest" xlink:href="WriterConfig.html" xlink:show="new" xlink:title="WriterConfig.html" xlink:type="simple"><text fill="#000000" font-family="sans-serif" font-size="14" lengthAdjust="spacing" textLength="204.1689" x="872.5" y="292.7764">rowGroupTargetBytes(): long</text></a><g data-visibility-modifier="PUBLIC_METHOD"><a href="WriterConfig.html" target="_top" title="WriterConfig.html" xlink:actuate="onRequest" xlink:href="WriterConfig.html" xlink:show="new" xlink:title="WriterConfig.html" xlink:type="simple"><ellipse cx="863.5" cy="305.7266" fill="#84BE84" rx="3" ry="3" style="stroke:#038048;stroke-width:1;"/></a></g><a href="WriterConfig.html" target="_top" title="WriterConfig.html" xlink:actuate="onRequest" xlink:href="WriterConfig.html" xlink:show="new" xlink:title="WriterConfig.html" xlink:type="simple"><text fill="#000000" font-family="sans-serif" font-size="14" lengthAdjust="spacing" textLength="133.3965" x="872.5" y="309.0732">createdBy(): String</text></a></g><!--class WriterConfig.Builder--><g class="entity" data-qualified-name="dev.hardwood.writer..WriterConfig.Builder" data-source-line="23" id="ent0004"><a href="WriterConfig.Builder.html" target="_top" title="WriterConfig.Builder.html" xlink:actuate="onRequest" xlink:href="WriterConfig.Builder.html" xlink:show="new" xlink:title="WriterConfig.Builder.html" xlink:type="simple"><rect fill="#F1F1F1" height="113.1875" rx="2.5" ry="2.5" style="stroke:#181818;stroke-width:0.5;" width="279.6816" x="884" y="352"/><ellipse cx="948.4766" cy="368" fill="#ADD1B2" rx="11" ry="11" style="stroke:#181818;stroke-width:1;"/><path d="M951.4453,373.6406 Q950.8672,373.9375 950.2266,374.0781 Q949.5859,374.2344 948.8828,374.2344 Q946.3828,374.2344 945.0547,372.5938 Q943.7422,370.9375 943.7422,367.8125 Q943.7422,364.6875 945.0547,363.0313 Q946.3828,361.375 948.8828,361.375 Q949.5859,361.375 950.2266,361.5313 Q950.8828,361.6875 951.4453,361.9844 L951.4453,364.7031 Q950.8203,364.125 950.2266,363.8594 Q949.6328,363.5781 949.0078,363.5781 Q947.6641,363.5781 946.9766,364.6563 Q946.2891,365.7188 946.2891,367.8125 Q946.2891,369.9063 946.9766,370.9844 Q947.6641,372.0469 949.0078,372.0469 Q949.6328,372.0469 950.2266,371.7813 Q950.8203,371.5 951.4453,370.9219 L951.4453,373.6406 Z " fill="#000000"/><text fill="#000000" font-family="sans-serif" font-size="14" lengthAdjust="spacing" textLength="142.2285" x="968.9766" y="372.8467">WriterConfig.Builder</text><line style="stroke:#181818;stroke-width:0.5;" x1="885" x2="1162.6816" y1="384" y2="384"/><line style="stroke:#181818;stroke-width:0.5;" x1="885" x2="1162.6816" y1="392" y2="392"/></a><g data-visibility-modifier="PUBLIC_METHOD"><a href="WriterConfig.Builder.html" target="_top" title="WriterConfig.Builder.html" xlink:actuate="onRequest" xlink:href="WriterConfig.Builder.html" xlink:show="new" xlink:title="WriterConfig.Builder.html" xlink:type="simple"><ellipse cx="895" cy="405.6484" fill="#84BE84" rx="3" ry="3" style="stroke:#038048;stroke-width:1;"/></a></g><a href="WriterConfig.Builder.html" target="_top" title="WriterConfig.Builder.html" xlink:actuate="onRequest" xlink:href="WriterConfig.Builder.html" xlink:show="new" xlink:title="WriterConfig.Builder.html" xlink:type="simple"><text fill="#000000" font-family="sans-serif" font-size="14" lengthAdjust="spacing" textLength="207.9834" x="904" y="408.9951">pageTargetBytes(int): Builder</text></a><g data-visibility-modifier="PUBLIC_METHOD"><a href="WriterConfig.Builder.html" target="_top" title="WriterConfig.Builder.html" xlink:actuate="onRequest" xlink:href="WriterConfig.Builder.html" xlink:show="new" xlink:title="WriterConfig.Builder.html" xlink:type="simple"><ellipse cx="895" cy="421.9453" fill="#84BE84" rx="3" ry="3" style="stroke:#038048;stroke-width:1;"/></a></g><a href="WriterConfig.Builder.html" target="_top" title="WriterConfig.Builder.html" xlink:actuate="onRequest" xlink:href="WriterConfig.Builder.html" xlink:show="new" xlink:title="WriterConfig.Builder.html" xlink:type="simple"><text fill="#000000" font-family="sans-serif" font-size="14" lengthAdjust="spacing" textLength="253.6816" x="904" y="425.292">rowGroupTargetBytes(long): Builder</text></a><g data-visibility-modifier="PUBLIC_METHOD"><a href="WriterConfig.Builder.html" target="_top" title="WriterConfig.Builder.html" xlink:actuate="onRequest" xlink:href="WriterConfig.Builder.html" xlink:show="new" xlink:title="WriterConfig.Builder.html" xlink:type="simple"><ellipse cx="895" cy="438.2422" fill="#84BE84" rx="3" ry="3" style="stroke:#038048;stroke-width:1;"/></a></g><a href="WriterConfig.Builder.html" target="_top" title="WriterConfig.Builder.html" xlink:actuate="onRequest" xlink:href="WriterConfig.Builder.html" xlink:show="new" xlink:title="WriterConfig.Builder.html" xlink:type="simple"><text fill="#000000" font-family="sans-serif" font-size="14" lengthAdjust="spacing" textLength="182.9092" x="904" y="441.5889">createdBy(String): Builder</text></a><g data-visibility-modifier="PUBLIC_METHOD"><a href="WriterConfig.Builder.html" target="_top" title="WriterConfig.Builder.html" xlink:actuate="onRequest" xlink:href="WriterConfig.Builder.html" xlink:show="new" xlink:title="WriterConfig.Builder.html" xlink:type="simple"><ellipse cx="895" cy="454.5391" fill="#84BE84" rx="3" ry="3" style="stroke:#038048;stroke-width:1;"/></a></g><a href="WriterConfig.Builder.html" target="_top" title="WriterConfig.Builder.html" xlink:actuate="onRequest" xlink:href="WriterConfig.Builder.html" xlink:show="new" xlink:title="WriterConfig.Builder.html" xlink:type="simple"><text fill="#000000" font-family="sans-serif" font-size="14" lengthAdjust="spacing" textLength="142.7822" x="904" y="457.8857">build(): WriterConfig</text></a></g><!--class ColumnBatch--><g class="entity" data-qualified-name="dev.hardwood.writer..ColumnBatch" data-source-line="30" id="ent0005"><a href="ColumnBatch.html" target="_top" title="ColumnBatch.html" xlink:actuate="onRequest" xlink:href="ColumnBatch.html" xlink:show="new" xlink:title="ColumnBatch.html" xlink:type="simple"><rect fill="#F1F1F1" height="145.7813" rx="2.5" ry="2.5" style="stroke:#181818;stroke-width:0.5;" width="321.1484" x="513.5" y="154"/><ellipse cx="622.8955" cy="170" fill="#ADD1B2" rx="11" ry="11" style="stroke:#181818;stroke-width:1;"/><path d="M625.8643,175.6406 Q625.2861,175.9375 624.6455,176.0781 Q624.0049,176.2344 623.3018,176.2344 Q620.8018,176.2344 619.4736,174.5938 Q618.1611,172.9375 618.1611,169.8125 Q618.1611,166.6875 619.4736,165.0313 Q620.8018,163.375 623.3018,163.375 Q624.0049,163.375 624.6455,163.5313 Q625.3018,163.6875 625.8643,163.9844 L625.8643,166.7031 Q625.2393,166.125 624.6455,165.8594 Q624.0518,165.5781 623.4268,165.5781 Q622.083,165.5781 621.3955,166.6563 Q620.708,167.7188 620.708,169.8125 Q620.708,171.9063 621.3955,172.9844 Q622.083,174.0469 623.4268,174.0469 Q624.0518,174.0469 624.6455,173.7813 Q625.2393,173.5 625.8643,172.9219 L625.8643,175.6406 Z " fill="#000000"/><text fill="#000000" font-family="sans-serif" font-size="14" lengthAdjust="spacing" textLength="93.8574" x="643.3955" y="174.8467">ColumnBatch</text><line style="stroke:#181818;stroke-width:0.5;" x1="514.5" x2="833.6484" y1="186" y2="186"/><line style="stroke:#181818;stroke-width:0.5;" x1="514.5" x2="833.6484" y1="194" y2="194"/></a><g data-visibility-modifier="PUBLIC_METHOD"><a href="ColumnBatch.html" target="_top" title="ColumnBatch.html" xlink:actuate="onRequest" xlink:href="ColumnBatch.html" xlink:show="new" xlink:title="ColumnBatch.html" xlink:type="simple"><ellipse cx="524.5" cy="207.6484" fill="#84BE84" rx="3" ry="3" style="stroke:#038048;stroke-width:1;"/></a></g><a href="ColumnBatch.html" target="_top" title="ColumnBatch.html" xlink:actuate="onRequest" xlink:href="ColumnBatch.html" xlink:show="new" xlink:title="ColumnBatch.html" xlink:type="simple"><text fill="#000000" font-family="sans-serif" font-size="14" lengthAdjust="spacing" textLength="195.8223" x="533.5" y="210.9951">ints(int, int[]): ColumnBatch</text></a><g data-visibility-modifier="PUBLIC_METHOD"><a href="ColumnBatch.html" target="_top" title="ColumnBatch.html" xlink:actuate="onRequest" xlink:href="ColumnBatch.html" xlink:show="new" xlink:title="ColumnBatch.html" xlink:type="simple"><ellipse cx="524.5" cy="223.9453" fill="#84BE84" rx="3" ry="3" style="stroke:#038048;stroke-width:1;"/></a></g><a href="ColumnBatch.html" target="_top" title="ColumnBatch.html" xlink:actuate="onRequest" xlink:href="ColumnBatch.html" xlink:show="new" xlink:title="ColumnBatch.html" xlink:type="simple"><text fill="#000000" font-family="sans-serif" font-size="14" lengthAdjust="spacing" textLength="219.3516" x="533.5" y="227.292">ints(String, int[]): ColumnBatch</text></a><g data-visibility-modifier="PUBLIC_METHOD"><a href="ColumnBatch.html" target="_top" title="ColumnBatch.html" xlink:actuate="onRequest" xlink:href="ColumnBatch.html" xlink:show="new" xlink:title="ColumnBatch.html" xlink:type="simple"><ellipse cx="524.5" cy="240.2422" fill="#84BE84" rx="3" ry="3" style="stroke:#038048;stroke-width:1;"/></a></g><a href="ColumnBatch.html" target="_top" title="ColumnBatch.html" xlink:actuate="onRequest" xlink:href="ColumnBatch.html" xlink:show="new" xlink:title="ColumnBatch.html" xlink:type="simple"><text fill="#000000" font-family="sans-serif" font-size="14" lengthAdjust="spacing" textLength="257.209" x="533.5" y="243.5889">ints(int, int[], Validity): ColumnBatch</text></a><g data-visibility-modifier="PUBLIC_METHOD"><a href="ColumnBatch.html" target="_top" title="ColumnBatch.html" xlink:actuate="onRequest" xlink:href="ColumnBatch.html" xlink:show="new" xlink:title="ColumnBatch.html" xlink:type="simple"><ellipse cx="524.5" cy="256.5391" fill="#84BE84" rx="3" ry="3" style="stroke:#038048;stroke-width:1;"/></a></g><a href="ColumnBatch.html" target="_top" title="ColumnBatch.html" xlink:actuate="onRequest" xlink:href="ColumnBatch.html" xlink:show="new" xlink:title="ColumnBatch.html" xlink:type="simple"><text fill="#000000" font-family="sans-serif" font-size="14" lengthAdjust="spacing" textLength="280.7383" x="533.5" y="259.8857">ints(String, int[], Validity): ColumnBatch</text></a><g data-visibility-modifier="PUBLIC_METHOD"><a href="ColumnBatch.html" target="_top" title="ColumnBatch.html" xlink:actuate="onRequest" xlink:href="ColumnBatch.html" xlink:show="new" xlink:title="ColumnBatch.html" xlink:type="simple"><ellipse cx="524.5" cy="272.8359" fill="#84BE84" rx="3" ry="3" style="stroke:#038048;stroke-width:1;"/></a></g><a href="ColumnBatch.html" target="_top" title="ColumnBatch.html" xlink:actuate="onRequest" xlink:href="ColumnBatch.html" xlink:show="new" xlink:title="ColumnBatch.html" xlink:type="simple"><text fill="#000000" font-family="sans-serif" font-size="14" lengthAdjust="spacing" textLength="271.6191" x="533.5" y="276.1826">ints(int, int[], boolean[]): ColumnBatch</text></a><g data-visibility-modifier="PUBLIC_METHOD"><a href="ColumnBatch.html" target="_top" title="ColumnBatch.html" xlink:actuate="onRequest" xlink:href="ColumnBatch.html" xlink:show="new" xlink:title="ColumnBatch.html" xlink:type="simple"><ellipse cx="524.5" cy="289.1328" fill="#84BE84" rx="3" ry="3" style="stroke:#038048;stroke-width:1;"/></a></g><a href="ColumnBatch.html" target="_top" title="ColumnBatch.html" xlink:actuate="onRequest" xlink:href="ColumnBatch.html" xlink:show="new" xlink:title="ColumnBatch.html" xlink:type="simple"><text fill="#000000" font-family="sans-serif" font-size="14" lengthAdjust="spacing" textLength="295.1484" x="533.5" y="292.4795">ints(String, int[], boolean[]): ColumnBatch</text></a></g><!--class ParquetFileWriter--><g class="entity" data-qualified-name="dev.hardwood.writer..ParquetFileWriter" data-source-line="39" id="ent0006"><a href="ParquetFileWriter.html" target="_top" title="ParquetFileWriter.html" xlink:actuate="onRequest" xlink:href="ParquetFileWriter.html" xlink:show="new" xlink:title="ParquetFileWriter.html" xlink:type="simple"><rect fill="#F1F1F1" height="113.1875" rx="2.5" ry="2.5" style="stroke:#181818;stroke-width:0.5;" width="473.1455" x="22.5" y="170.5"/><ellipse cx="193.6069" cy="186.5" fill="#ADD1B2" rx="11" ry="11" style="stroke:#181818;stroke-width:1;"/><path d="M196.5757,192.1406 Q195.9976,192.4375 195.3569,192.5781 Q194.7163,192.7344 194.0132,192.7344 Q191.5132,192.7344 190.1851,191.0938 Q188.8726,189.4375 188.8726,186.3125 Q188.8726,183.1875 190.1851,181.5313 Q191.5132,179.875 194.0132,179.875 Q194.7163,179.875 195.3569,180.0313 Q196.0132,180.1875 196.5757,180.4844 L196.5757,183.2031 Q195.9507,182.625 195.3569,182.3594 Q194.7632,182.0781 194.1382,182.0781 Q192.7944,182.0781 192.1069,183.1563 Q191.4194,184.2188 191.4194,186.3125 Q191.4194,188.4063 192.1069,189.4844 Q192.7944,190.5469 194.1382,190.5469 Q194.7632,190.5469 195.3569,190.2813 Q195.9507,190 196.5757,189.4219 L196.5757,192.1406 Z " fill="#000000"/><text fill="#000000" font-family="sans-serif" font-size="14" lengthAdjust="spacing" textLength="122.4316" x="214.1069" y="191.3467">ParquetFileWriter</text><line style="stroke:#181818;stroke-width:0.5;" x1="23.5" x2="494.6455" y1="202.5" y2="202.5"/><line style="stroke:#181818;stroke-width:0.5;" x1="23.5" x2="494.6455" y1="210.5" y2="210.5"/></a><g data-visibility-modifier="PUBLIC_METHOD"><a href="ParquetFileWriter.html" target="_top" title="ParquetFileWriter.html" xlink:actuate="onRequest" xlink:href="ParquetFileWriter.html" xlink:show="new" xlink:title="ParquetFileWriter.html" xlink:type="simple"><ellipse cx="33.5" cy="224.1484" fill="#84BE84" rx="3" ry="3" style="stroke:#038048;stroke-width:1;"/></a></g><a href="ParquetFileWriter.html" target="_top" title="ParquetFileWriter.html" xlink:actuate="onRequest" xlink:href="ParquetFileWriter.html" xlink:show="new" xlink:title="ParquetFileWriter.html" xlink:type="simple"><text fill="#000000" font-family="sans-serif" font-size="14" lengthAdjust="spacing" text-decoration="underline" textLength="349.9795" x="42.5" y="227.4951">create(OutputFile, FileSchema): ParquetFileWriter</text></a><g data-visibility-modifier="PUBLIC_METHOD"><a href="ParquetFileWriter.html" target="_top" title="ParquetFileWriter.html" xlink:actuate="onRequest" xlink:href="ParquetFileWriter.html" xlink:show="new" xlink:title="ParquetFileWriter.html" xlink:type="simple"><ellipse cx="33.5" cy="240.4453" fill="#84BE84" rx="3" ry="3" style="stroke:#038048;stroke-width:1;"/></a></g><a href="ParquetFileWriter.html" target="_top" title="ParquetFileWriter.html" xlink:actuate="onRequest" xlink:href="ParquetFileWriter.html" xlink:show="new" xlink:title="ParquetFileWriter.html" xlink:type="simple"><text fill="#000000" font-family="sans-serif" font-size="14" lengthAdjust="spacing" text-decoration="underline" textLength="447.1455" x="42.5" y="243.792">create(OutputFile, FileSchema, WriterConfig): ParquetFileWriter</text></a><g data-visibility-modifier="PUBLIC_METHOD"><a href="ParquetFileWriter.html" target="_top" title="ParquetFileWriter.html" xlink:actuate="onRequest" xlink:href="ParquetFileWriter.html" xlink:show="new" xlink:title="ParquetFileWriter.html" xlink:type="simple"><ellipse cx="33.5" cy="256.7422" fill="#84BE84" rx="3" ry="3" style="stroke:#038048;stroke-width:1;"/></a></g><a href="ParquetFileWriter.html" target="_top" title="ParquetFileWriter.html" xlink:actuate="onRequest" xlink:href="ParquetFileWriter.html" xlink:show="new" xlink:title="ParquetFileWriter.html" xlink:type="simple"><text fill="#000000" font-family="sans-serif" font-size="14" lengthAdjust="spacing" textLength="313.8652" x="42.5" y="260.0889">writeBatch(Consumer&lt;ColumnBatch&gt;): void</text></a><g data-visibility-modifier="PUBLIC_METHOD"><a href="ParquetFileWriter.html" target="_top" title="ParquetFileWriter.html" xlink:actuate="onRequest" xlink:href="ParquetFileWriter.html" xlink:show="new" xlink:title="ParquetFileWriter.html" xlink:type="simple"><ellipse cx="33.5" cy="273.0391" fill="#84BE84" rx="3" ry="3" style="stroke:#038048;stroke-width:1;"/></a></g><a href="ParquetFileWriter.html" target="_top" title="ParquetFileWriter.html" xlink:actuate="onRequest" xlink:href="ParquetFileWriter.html" xlink:show="new" xlink:title="ParquetFileWriter.html" xlink:type="simple"><text fill="#000000" font-family="sans-serif" font-size="14" lengthAdjust="spacing" textLength="85.7773" x="42.5" y="276.3857">close(): void</text></a></g><!--class Closeable--><g class="entity" data-qualified-name="java.io..Closeable" data-source-line="49" id="ent0008"><rect fill="#F1F1F1" height="64.2969" rx="2.5" ry="2.5" style="stroke:#181818;stroke-width:0.5;" width="111.7773" x="203" y="31"/><ellipse cx="223.2519" cy="47" fill="#B4A7E5" rx="11" ry="11" style="stroke:#181818;stroke-width:1;"/><path d="M219.1738,42.7656 L219.1738,40.6094 L226.5644,40.6094 L226.5644,42.7656 L224.0957,42.7656 L224.0957,50.8438 L226.5644,50.8438 L226.5644,53 L219.1738,53 L219.1738,50.8438 L221.6425,50.8438 L221.6425,42.7656 L219.1738,42.7656 Z " fill="#000000"/><text fill="#000000" font-family="sans-serif" font-size="14" font-style="italic" lengthAdjust="spacing" textLength="68.1064" x="238.419" y="51.8467">Closeable</text><line style="stroke:#181818;stroke-width:0.5;" x1="204" x2="313.7773" y1="63" y2="63"/><line style="stroke:#181818;stroke-width:0.5;" x1="204" x2="313.7773" y1="71" y2="71"/><g data-visibility-modifier="PUBLIC_METHOD"><ellipse cx="214" cy="84.6484" fill="#84BE84" rx="3" ry="3" style="stroke:#038048;stroke-width:1;"/></g><text fill="#000000" font-family="sans-serif" font-size="14" font-style="italic" lengthAdjust="spacing" textLength="85.7773" x="223" y="87.9951">close(): void</text></g><g class="link" data-entity-1="ent0003" data-entity-2="ent0004" data-link-type="nested" id="lnk9"><ellipse cx="1024" cy="324.1724" fill="#FFFFFF" rx="8" ry="8" style="stroke:#181818;stroke-width:1;"/><line style="stroke:#181818;stroke-width:1;" x1="1024" x2="1024" y1="332.1724" y2="316.1724"/><line style="stroke:#181818;stroke-width:1;" x1="1016" x2="1032" y1="324.1724" y2="324.1724"/><path d="M1024,332.1724 C1024,344.2304 1024,340.3263 1024,351.5893" fill="none" style="stroke:#181818;stroke-width:1;"/></g><g class="link" data-entity-1="ent0008" data-entity-2="ent0006" data-link-type="extension" id="lnk10"><polygon fill="none" points="259,95.2352,253,113.2352,265,113.2352,259,95.2352" style="stroke:#181818;stroke-width:1;"/><path d="M259,113.2352 C259,134.4743 259,145.1664 259,170.263" fill="none" style="stroke:#181818;stroke-width:1;stroke-dasharray:7,7;"/></g><g class="footer" data-source-line="63"><text fill="#888888" font-family="sans-serif" font-size="10" lengthAdjust="spacing" textLength="3.1787" x="595.9106" y="484.2822">&#160;</text><a href="https://github.com/talsma-ict/umldoclet" target="_top" title="https://github.com/talsma-ict/umldoclet" xlink:actuate="onRequest" xlink:href="https://github.com/talsma-ict/umldoclet" xlink:show="new" xlink:title="https://github.com/talsma-ict/umldoclet" xlink:type="simple"><text fill="#888888" font-family="sans-serif" font-size="10" lengthAdjust="spacing" textLength="82.3096" x="556.3452" y="495.9229">UMLDoclet 2.2.5</text></a></g></g></svg>